<svg xmlns="http://www.w3.org/2000/svg" width="1200" height="800" viewBox="0 0 1200 800" role="img" aria-labelledby="title desc">
  <title id="title">Wildlife Filmmaking</title>
  <desc id="desc">Temporary dark wildlife filmmaking gallery image.</desc>
  <defs>
    <linearGradient id="bg" x1="0" y1="0" x2="1" y2="1">
      <stop offset="0" stop-color="#020617"/>
      <stop offset="0.6" stop-color="#14532d"/>
      <stop offset="1" stop-color="#1c1917"/>
    </linearGradient>
  </defs>
  <rect width="1200" height="800" fill="url(#bg)"/>
  <path d="M0 610c180-80 320-80 500-10s350 60 700-55v255H0z" fill="#052e16" opacity="0.9"/>
  <path d="M135 600V330m0 0c-55 80-95 165-115 255m115-255c48 70 90 148 125 245" stroke="#22c55e" stroke-width="12" stroke-linecap="round" opacity="0.45"/>
  <path d="M960 580V250m0 0c-80 110-130 215-155 325m155-325c62 92 108 195 145 318" stroke="#a3e635" stroke-width="12" stroke-linecap="round" opacity="0.38"/>
  <rect x="390" y="255" width="420" height="250" rx="24" fill="#020617" opacity="0.72" stroke="#facc15" stroke-width="2"/>
  <circle cx="600" cy="380" r="76" fill="none" stroke="#facc15" stroke-width="18"/>
  <circle cx="600" cy="380" r="32" fill="#facc15" opacity="0.78"/>
  <path d="M810 330l120-55v210l-120-55z" fill="#facc15" opacity="0.65"/>
  <text x="100" y="735" fill="#e2e8f0" font-family="Consolas, monospace" font-size="42" font-weight="700">Wildlife Filmmaking</text>
  <text x="100" y="770" fill="#cbd5e1" font-family="Consolas, monospace" font-size="22">Replace this with your forest or field image</text>
</svg>
